<svg xml:space="preserve" style="enable-background:new 0 0 414 414; background-color: rgb(51,65,85)" viewBox="0 0 414 414" y="0px" x="0px" xmlns:xlink="http://www.w3.org/1999/xlink" xmlns="http://www.w3.org/2000/svg" id="transring" version="1.1">
  <path d="M84.2,85c31.3-31.5,74.7-51,122.7-51c95.5,0,173,77.5,173,173s-77.5,173-173,173
                c-47.8,0-91-19.4-122.3-50.7" style="opacity:0.4;fill:none;stroke:#ffffff;stroke-width:2;stroke-miterlimit:10;enable-background:new" class="transrg" id="Transparent_Ring"></path>
  <path d="M84.2,85c31.3-31.5,74.7-51,122.7-51c95.5,0,173,77.5,173,173s-77.5,173-173,173
                c-47.8,0-91-19.4-122.3-50.7" style="fill: none; stroke: rgb(255, 255, 255); stroke-width: 2; stroke-miterlimit: 10; stroke-dasharray: 280, 1000;" stroke-dasharray="0,1000" class="transrgwht" id="Opaque_Ring"></path>
  <g class="dots-nav" id="Dots1">
    <g>
      <path d="M84,80 c-3.3,0-6,2.7-6,6s2.7,6,6,6s6-2.7,6 -6 S 87, 80, 84,80 z" style="fill: rgb(0, 146, 255); opacity: 1;" class="dotsst dotsfill1"></path>
    </g>
    <g>
      <path d="M84,80c-3.3,0-6,2.7-6,6s2.7,6,6,6s6-2.7,6 -6 S 87, 80, 84,80 z" style="opacity: 1; fill: none; stroke: rgb(255, 255, 255); stroke-width: 2; stroke-miterlimit: 10;" class="dotsstro1"></path>
    </g>
  </g>
  <g class="dots-nav" id="Dots2">
    <g>
      <path d="M206.8,29c-3.3,0-6,2.7-6,6s2.7,6,6,6s6-2.7,6 -6S 210.1,29, 206.8,29 z M206.8" style="fill: rgb(0, 146, 255); opacity: 1;" class="dotsst dotsfill2"></path>
    </g>
    <g>
      <path d="M206.8,29c-3.3,0-6,2.7-6,6s2.7,6,6,6s6-2.7,6 -6S 210.1,29, 206.8,29 z M206.8" style="opacity: 1; fill: none; stroke: rgb(255, 255, 255); stroke-width: 2; stroke-miterlimit: 10;" class="dotsstro2"></path>
    </g>
  </g>
  <g class="dots-nav" id="Dots3">
    <g>
      <path d="M332,85 c-3.3,0-6,2.7-6,6s2.7,6,6,6s6-2.7,6 -6 S 335,85, 332,85 z M332" style="fill: rgb(0, 146, 255); opacity: 1;" class="dotsst dotsfill3"></path>
    </g>
    <g>
      <path d="M332,85 c-3.3,0-6,2.7-6,6s2.7,6,6,6s6-2.7,6 -6 S 335,85, 332,85 z M332" style="opacity: 1; fill: none; stroke: rgb(255, 255, 255); stroke-width: 2; stroke-miterlimit: 10;" class="dotsstro3"></path>
    </g>
  </g>
  <g class="dots-nav" id="Dots4">
    <g>
      <path d="M380,205 c-3.3,0-6,2.7-6,6s2.7,6,6,6s6-2.7,6 -6 S 383,205, 380,205 z M380" style="fill: rgb(0, 146, 255); opacity: 1;" class="dotsst dotsfill4"></path>
    </g>
    <g>
      <path d="M380,205 c-3.3,0-6,2.7-6,6s2.7,6,6,6s6-2.7,6 -6 S 383,205, 380,205 z M380" style="opacity: 1; fill: none; stroke: rgb(255, 255, 255); stroke-width: 2; stroke-miterlimit: 10;" class="dotsstro4"></path>
    </g>
  </g>
  <g class="dots-nav" id="Dots5">
    <g>
      <path d="M335,315 c-3.3,0-6,2.7-6,6s2.7,6,6,6s6-2.7,6 -6 S 340,315, 335,315 z M335" style="fill: rgb(0, 146, 255); opacity: 1;" class="dotsst dotsfill5"></path>
    </g>
    <g>
      <path d="M335,315 c-3.3,0-6,2.7-6,6s2.7,6,6,6s6-2.7,6 -6 S 340,315, 335,315 z M335" style="opacity: 1; fill: none; stroke: rgb(255, 255, 255); stroke-width: 2; stroke-miterlimit: 10;" class="dotsstro5"></path>
    </g>
  </g>
  <g class="dots-nav" id="Dots6">
    <g>
      <path d="M210,375 c-3.3,0-6,2.7-6,6s2.7,6,6,6s6-2.7,6 -6 S 215,375, 210,375 z M210" style="fill: rgb(0, 146, 255); opacity: 1;" class="dotsst dotsfill6"></path>
    </g>
    <g>
      <path d="M210,375 c-3.3,0-6,2.7-6,6s2.7,6,6,6s6-2.7,6 -6 S 215,375, 210,375 z M210" style="opacity: 1; fill: none; stroke: rgb(255, 255, 255); stroke-width: 2; stroke-miterlimit: 10;" class="dotsstro6"></path>
    </g>
  </g>
  <g class="dots-nav" id="Dots7">
    <g>
      <path d="M88,324 c-3.3,0-6,2.7-6,6s2.7,6,6,6s6-2.7,6 -6 S 92,324, 88,324 z M88" style="fill: rgb(0, 146, 255); opacity: 1;" class="dotsst dotsfill7"></path>
    </g>
    <g>
      <path d="M88,324 c-3.3,0-6,2.7-6,6s2.7,6,6,6s6-2.7,6 -6 S 92,324, 88,324 z M88" style="opacity: 1; fill: none; stroke: rgb(255, 255, 255); stroke-width: 2; stroke-miterlimit: 10;" class="dotsstro7"></path>
    </g>
  </g>
</svg>
